# xmcd
#
# Track frame offsets: 
#        150
#        9893
#        24780
#        37579
#        51981
#        65410
#        79682
#        92404
#        107170
#        121569
#        136512
#        150262
#        164052
#        180157
#        194996
#
# Disc length: 2787 seconds
#
# Revision: 1
# Processed by: cddbd v1.5.2PL0 Copyright (c) Steve Scherf et al.
# Submitted via: ExactAudioCopy v1.0b1
#
DISCID=a20ae10f
DTITLE=Rionegro e Solimoes - Virou Festa
DYEAR=2011
DGENRE=Bebob
TTITLE0=Vira Vira - Citacao: A Marcha do Caneco
TTITLE1=Vida Sem Qualidade
TTITLE2=Volta Pra Gente
TTITLE3=Por do Sol 
TTITLE4=Mais Uma Vez
TTITLE5=Cheiro de Amor 
TTITLE6=Trope e Bota Pra Quebrar
TTITLE7=Seria Perfeito
TTITLE8=Sem Voce
TTITLE9=Onde Anda Voce
TTITLE10=Ai Vou Achar Bom
TTITLE11=Pra Sempre na Memoria
TTITLE12=Cancoes do Vento Sul
TTITLE13=Depois da Bebida
TTITLE14=Vai Arranca Toco
EXTD=
EXTT0=
EXTT1=
EXTT2=
EXTT3=
EXTT4=
EXTT5=
EXTT6=
EXTT7=
EXTT8=
EXTT9=
EXTT10=
EXTT11=
EXTT12=
EXTT13=
EXTT14=
PLAYORDER=
